<?xml version="1.0" encoding="UTF-8" standalone="no"?>
<svg
   width="48"
   height="48"
   viewBox="0 0 48 48"
   version="1.1"
   id="svg1414"
   sodipodi:docname="database.svg"
   inkscape:version="1.1 (c68e22c387, 2021-05-23)"
   xmlns:inkscape="http://www.inkscape.org/namespaces/inkscape"
   xmlns:sodipodi="http://sodipodi.sourceforge.net/DTD/sodipodi-0.dtd"
   xmlns="http://www.w3.org/2000/svg"
   xmlns:svg="http://www.w3.org/2000/svg">
  <defs
     id="defs1418" />
  <sodipodi:namedview
     id="namedview1416"
     pagecolor="#ffffff"
     bordercolor="#666666"
     borderopacity="1.0"
     inkscape:pageshadow="2"
     inkscape:pageopacity="0.0"
     inkscape:pagecheckerboard="0"
     showgrid="false"
     inkscape:zoom="16.104167"
     inkscape:cx="23.968952"
     inkscape:cy="24"
     inkscape:window-width="1920"
     inkscape:window-height="991"
     inkscape:window-x="-9"
     inkscape:window-y="-9"
     inkscape:window-maximized="1"
     inkscape:current-layer="svg1414" />
  <path
     d="M24 20c-11.215 0-20-3.953-20-9s8.785-9 20-9 20 3.953 20 9-8.785 9-20 9zm0-16C15.486 4 6 6.875 6 11s9.486 7 18 7 18-2.875 18-7-9.486-7-18-7z"
     id="path1406"
     style="fill:#5221e6;fill-opacity:1" />
  <path
     d="M24 28c-11.215 0-20-3.953-20-9v-8a1 1 0 1 1 2 0v8c0 4.125 9.486 7 18 7s18-2.875 18-7v-8a1 1 0 1 1 2 0v8c0 5.047-8.785 9-20 9z"
     id="path1408"
     style="fill:#5221e6;fill-opacity:1" />
  <path
     d="M24 37c-11.215 0-20-3.953-20-9v-9a1 1 0 1 1 2 0v9c0 4.125 9.486 7 18 7s18-2.875 18-7v-9a1 1 0 1 1 2 0v9c0 5.047-8.785 9-20 9z"
     id="path1410"
     style="fill:#5221e6;fill-opacity:1" />
  <path
     d="M24 46c-11.215 0-20-3.953-20-9v-9a1 1 0 1 1 2 0v9c0 4.125 9.486 7 18 7s18-2.875 18-7v-9a1 1 0 1 1 2 0v9c0 5.047-8.785 9-20 9z"
     id="path1412"
     style="fill:#5221e6;fill-opacity:1" />
</svg>
