<?xml version="1.0" encoding="UTF-8" standalone="no"?>
<svg
   width="32"
   height="32"
   viewBox="0 0 32 32"
   version="1.1"
   id="svg939"
   sodipodi:docname="git.svg"
   inkscape:version="1.1 (c68e22c387, 2021-05-23)"
   xmlns:inkscape="http://www.inkscape.org/namespaces/inkscape"
   xmlns:sodipodi="http://sodipodi.sourceforge.net/DTD/sodipodi-0.dtd"
   xmlns="http://www.w3.org/2000/svg"
   xmlns:svg="http://www.w3.org/2000/svg">
  <defs
     id="defs943" />
  <sodipodi:namedview
     id="namedview941"
     pagecolor="#ffffff"
     bordercolor="#666666"
     borderopacity="1.0"
     inkscape:pageshadow="2"
     inkscape:pageopacity="0.0"
     inkscape:pagecheckerboard="0"
     showgrid="false"
     inkscape:zoom="24.15625"
     inkscape:cx="15.979301"
     inkscape:cy="16"
     inkscape:window-width="1920"
     inkscape:window-height="991"
     inkscape:window-x="-9"
     inkscape:window-y="-9"
     inkscape:window-maximized="1"
     inkscape:current-layer="svg939" />
  <path
     fill="#444"
     d="M26.852 15.281l-9.848-9.848a1.453 1.453 0 0 0-2.054 0l-2.045 2.045 2.594 2.594a1.725 1.725 0 0 1 2.185 2.199l2.5 2.5a1.728 1.728 0 1 1-1.035.974l-2.332-2.332v6.136a1.73 1.73 0 1 1-1.421-.05v-6.193a1.729 1.729 0 0 1-.938-2.266l-2.557-2.558-6.753 6.752a1.454 1.454 0 0 0 0 2.055l9.849 9.848a1.453 1.453 0 0 0 2.054 0l9.802-9.802a1.454 1.454 0 0 0 0-2.055z"
     id="path937"
     style="fill:#5221e6;fill-opacity:1" />
</svg>
